<?xml version="1.0" encoding="utf-8"?>
<!-- Generator: Adobe Illustrator 24.2.3, SVG Export Plug-In . SVG Version: 6.00 Build 0)  -->
<svg version="1.1" id="Layer_1" xmlns="http://www.w3.org/2000/svg" xmlns:xlink="http://www.w3.org/1999/xlink" x="0px" y="0px"
	 viewBox="0 0 238 64.7" style="enable-background:new 0 0 238 64.7;" xml:space="preserve">
<style type="text/css">
	.st0{fill-rule:evenodd;clip-rule:evenodd;fill:#FCC95F;}
	.st1{fill-rule:evenodd;clip-rule:evenodd;fill:#FCCA5F;}
	.st2{fill-rule:evenodd;clip-rule:evenodd;fill:#FBCB60;}
	.st3{fill-rule:evenodd;clip-rule:evenodd;fill:#FACC60;}
	.st4{fill:#FFFFFF;}
	.st5{font-family:'ComicSansMS-BoldItalic';}
	.st6{font-size:28.8063px;}
</style>
<path class="st0" d="M46,11.6c0.3,4.8-0.7,9.7-2.1,14.5c-0.5,1.5-1.2,3.2-2.9,2.8c-1.6-0.3-0.8-2.1-0.9-3.3c-0.1-6-0.1-12-0.1-18
	c0-0.7-0.1-1.5,0.2-2.2c0.6-1.8,1-4,3.4-3.7C45.6,1.9,45.9,4,46,5.8C46,7.6,46,9.5,46,11.6z"/>
<path class="st1" d="M21.1,46.5c-2.4-0.1-4.3-1.4-6.3-2.5c-3.6-2-7.1-4.1-10.7-6.2c-1.4-0.8-2.3-2.2-1.6-3.8
	c0.8-1.8,2.7-1.5,3.9-0.8c5.4,3.1,11.1,5.8,15.6,10.2c0.6,0.6,1.4,1.2,1.1,2.2C22.9,46.6,21.9,46.3,21.1,46.5z"/>
<path class="st2" d="M54.9,27.6c-1.2-0.1-1.1-0.7-0.9-1.6c1.5-4.5,3.4-8.9,6.5-12.5c0.7-0.8,1.5-1.9,2.8-1.1
	c1.1,0.6,1.8,1.6,1.2,2.8c-2.1,4.6-4.8,8.8-8.8,12C55.5,27.4,55.1,27.5,54.9,27.6z"/>
<path class="st3" d="M28.6,33.5c-0.2,0.3-0.4,0.8-0.7,1.1c-0.5,0.4-1,0-1.3-0.3c-1.1-1.4-2.3-2.7-3-4.3c-1.6-3.3-2.9-6.6-4.3-9.9
	c-0.5-1.1-0.7-2.3,0.4-3c1.3-0.9,2.2,0.2,2.7,1.1C25.4,22.8,26.1,28.4,28.6,33.5z"/>
<text transform="matrix(1 0 0 1 32.4161 56.8324)" class="st4 st5 st6">PLATE MAKER</text>
</svg>
