<?xml version="1.0" encoding="utf-8"?>
<!-- Generator: Adobe Illustrator 24.2.3, SVG Export Plug-In . SVG Version: 6.00 Build 0)  -->
<svg version="1.1" id="Layer_1" xmlns="http://www.w3.org/2000/svg" xmlns:xlink="http://www.w3.org/1999/xlink" x="0px" y="0px"
	 viewBox="0 0 798.03 253.62" style="enable-background:new 0 0 798.03 253.62;" xml:space="preserve">
<style type="text/css">
	.st0{fill:#FCC960;}
	.st1{fill:#FCCA60;}
	.st2{fill:#FBCB61;}
	.st3{fill:#FACC61;}
	.st4{fill:#FEF1D8;}
	.st5{fill:#FDDC95;}
	.st6{fill:#FEF2DB;}
	.st7{fill:#FDDC97;}
	.st8{fill:#FDDE99;}
	.st9{fill:#FFF6E4;}
	.st10{fill:#FEF3DD;}
	.st11{fill:#FDE0A1;}
	.st12{fill:#FEEFCD;}
	.st13{fill:#FEF6E2;}
	.st14{fill:#FEEAC1;}
	.st15{fill:#FDDA8F;}
	.st16{fill:#FDE1A7;}
	.st17{fill:#FDDF9C;}
	.st18{fill:#FDEBC3;}
	.st19{fill:#FEF2D7;}
	.st20{fill:#FDECC3;}
	.st21{fill:#FDE5B0;}
	.st22{fill:#FCDC92;}
	.st23{fill:#FEF0CE;}
	.st24{fill:#FDE9B9;}
	.st25{fill:#FDE09B;}
	.st26{fill:#FDE1A6;}
	.st27{fill:#FDEFCD;}
	.st28{fill:#FEEBC4;}
	.st29{fill:#FDDB91;}
	.st30{fill:#FDDE9B;}
	.st31{fill:#FDE3A7;}
	.st32{fill:#FFE9BA;}
	.st33{fill:#FDFDFD;}
	.st34{font-family:'Haettenschweiler';}
	.st35{font-size:135.5866px;}
</style>
<g>
	<g>
		<path class="st0" d="M139.37,104.96c-0.87-0.06-1.74-0.12-2.6-0.18c-1.84-3.71-1.61-7.45-0.19-11.23
			c-0.01-7.23-0.03-14.45-0.04-21.68c-1.05-1.51-0.96-3.28-0.96-5.02c-0.02-13.7-0.02-27.4,0-41.11c0-1.74-0.09-3.52,1-5
			c0.06-1.22,0.11-2.44,0.17-3.66c2.42-1.56,1.13-4.85,2.66-6.83c-0.4-2.93,0.85-4.07,3.42-3.82c3.45-1.59,6.87-1.77,10.28,0.15
			l-0.02,0c0.82,1.62,2.04,2.8,3.4,3.84c0.07,3.69,0.13,7.38,0.2,11.07c1.53,4.78,1.52,9.56,0.02,14.35c0,2.22,0,4.44,0,6.66
			c1.5,4.78,1.51,9.57-0.02,14.35c-0.06,2.47-0.13,4.95-0.19,7.42c-2.1,1.35-2.56,3.45-2.41,5.93c0.11,1.81,0.06,3.65,0.02,5.47
			c0.05,1.32-0.08,2.59-0.83,3.69c-0.06,1.22-0.13,2.45-0.19,3.67c-3.04,1.43-2.37,4.39-2.42,7.06c0.04,1.27-0.1,2.48-0.84,3.52
			c-0.07,1.21-0.13,2.43-0.2,3.64c-1.42,0.97-2.58,2.19-3.26,3.9c0.37,2.93-0.93,4.02-3.46,3.76
			C141.72,105.86,140.55,105.87,139.37,104.96z"/>
		<path class="st1" d="M29.72,122.79c1.08,0.06,2.16,0.12,3.24,0.17c1.01,1.43,2.02,2.86,3.61,3.58l-0.07,0.12
			c0.85,1.61,1.99,2.87,3.58,3.6c0.86,0.05,1.71,0.11,2.57,0.16c0.87,1.57,1.97,2.88,3.56,3.59c1.09,0.06,2.18,0.12,3.27,0.18
			c0.9,1.53,1.97,2.87,3.55,3.61c1.5,0.29,3.37-0.45,3.68,2.48c0.11,1.04,2.04,0.3,3.09,0.65c0.86,1.58,1.97,2.86,3.52,3.63
			c1.23,0.22,2.72-0.25,2.71,2.17c-0.01,2.75,2.19,1.16,3.33,1.69c0.89,1.55,1.99,2.87,3.51,3.69l-0.03,0.03
			c0.81,1.62,1.95,2.88,3.45,3.73l0,0c0.78,1.65,1.93,2.89,3.42,3.76l0,0c1.44,2.24,1.36,4.5,0.09,6.79l-0.07-0.06
			c-4.59,1.89-9.2,1.79-13.8,0.07c-1.98-0.06-3.96-0.12-5.93-0.18c-1.06-1.17-2.31-2.04-3.61-2.84l0.06-0.1
			c-0.86-1.6-1.98-2.88-3.58-3.6c-1.09-0.06-2.18-0.12-3.27-0.18c-0.86-1.58-1.98-2.86-3.56-3.59c-1.09-0.06-2.18-0.12-3.27-0.17
			c-0.98-1.18-1.44-2.84-2.87-3.59c-1.09-0.05-2.17-0.11-3.26-0.16c-0.96-1.48-1.99-2.87-3.58-3.61l0.07-0.12
			c-0.85-1.61-1.99-2.87-3.57-3.61c-1.09-0.06-2.17-0.11-3.26-0.17c-0.88-1.56-1.98-2.85-3.55-3.6c-1.09-0.05-2.17-0.1-3.26-0.15
			c-1.01-1.23-2.29-2.05-3.57-2.87l0.06-0.1c-0.9-1.25-1.45-2.83-2.77-3.7l0-0.01c-1.93-3.5-0.77-7.32-0.99-11
			c0-1.43,0.02-2.85,1.04-3.95c0.87-0.07,1.74-0.14,2.61-0.2c2.34-1.36,4.66-1.41,6.97,0.09c1.1,0.06,2.19,0.12,3.29,0.18
			C27.09,120.7,28.15,122.05,29.72,122.79z"/>
		<path class="st2" d="M196.27,61.27c0.18-1.83-0.35-3.89,2.59-3.95c1.54-0.03,0.51-2.29,0.96-3.44c1.44-0.94,2.63-2.15,3.35-3.84
			l0.06,0.05c1.5-0.87,2.64-2.12,3.4-3.78l-0.01,0c3.2-1.73,6.41-1.76,9.61,0.02l-0.01,0.01c1.94,3.49,0.77,7.32,0.99,11
			c0.01,1.42-0.01,2.84-0.91,4.02c-0.41,0.92,0.37,2.81-0.95,2.77c-2.94-0.09-2.42,2.09-2.61,3.92c-1.24,1-1.86,2.49-2.61,3.89
			c-0.05,1.19-0.09,2.37-0.14,3.56c-1.4,0.99-2.62,2.16-3.33,3.87l-0.08-0.06c-1.48,0.91-2.64,2.15-3.34,3.86
			c-0.03,1.97,0.21,4.15-2.63,3.77c-0.1,3.14-4.77,2.13-4.38,5.83c0.09,0.89-0.93,0.84-1.59,0.89c-0.81,0.05-1.74,0.06-1.65,1.28
			c0.23,3.19-1.97,2.2-3.43,2.48c-1.41,0.74-1.92,2.36-2.89,3.54c-2.54,0.6-3.75-0.26-3.46-3.34c0.24-2.55,0.14-5.13,0.2-7.7
			c1.05-1.09,2.61-1.57,3.2-3.21c0.08-2.41,0.16-4.83,0.24-7.24c1.1-1.12,1.86-2.5,2.55-3.94c0.06-1.2,0.12-2.41,0.18-3.61
			c1.4-0.99,2.6-2.18,3.24-3.92c0.05-1.19,0.11-2.38,0.16-3.58C194.05,63.33,195.59,62.83,196.27,61.27z"/>
		<path class="st3" d="M76.44,100.93c-0.08-2.4-0.15-4.8-0.23-7.2c-0.62-1.76-1.79-2.99-3.22-3.96c-0.06-0.96-0.13-1.91-0.19-2.87
			c-0.63-1.75-1.86-2.91-3.23-3.94c-0.06-1.2-0.13-2.41-0.19-3.61c-0.71-0.98-0.84-2.13-0.83-3.32c0.43-2.25-0.98-3.27-2.41-4.27
			c-0.05-2.2,0.02-4.41-0.19-6.59c-0.28-2.96,0.79-4.26,3.48-4c2.32-1.38,4.61-1.5,6.86,0.19c0.17,1.36-0.24,2.98,1.96,2.98
			c2.5,0,0.99,2.45,1.57,3.67c0.65,1.74,1.89,2.89,3.26,3.92c0.06,1.2,0.11,2.39,0.17,3.59c0.64,1.74,1.9,2.87,3.23,3.95
			c0.08,2.42,0.17,4.84,0.25,7.26c0.59,1.3,1.66,2.15,2.5,3.22c0.08,2.43,0.16,4.86,0.24,7.29c0.59,1.78,1.84,2.92,3.19,3.97
			c0.08,2.43,0.16,4.86,0.24,7.29c0.59,1.78,1.84,2.93,3.2,3.96c0.06,0.95,0.13,1.91,0.19,2.86c0.79,1.1,0.88,2.39,0.86,3.71
			c0.04,1.29,0.05,2.58,0,3.88c0.01,1.33-0.06,2.64-1.02,3.64c-1.09-0.01-2.19-0.01-3.28-0.02c-0.86-1.57-1.99-2.83-3.48-3.69
			l-0.03,0.03c-0.82-1.34-1.47-2.82-2.69-3.83c-0.11-1.87,0.35-3.99-2.58-3.89c-1.35,0.04-0.57-1.83-0.96-2.74
			c-0.68-1.72-1.91-2.88-3.28-3.91c-0.06-1.2-0.12-2.4-0.18-3.59C79.04,103.13,77.75,102.02,76.44,100.93z"/>
		<path class="st4" d="M136.57,20.75c-0.01,17.04-0.02,34.09-0.04,51.13c-2.43,0.34-3.38-0.56-3.35-3.49
			c0.14-14.73,0.14-29.47,0-44.2C133.15,21.19,134.21,20.45,136.57,20.75z"/>
		<path class="st5" d="M65.95,166.44c4.6-0.02,9.2-0.05,13.8-0.07c0.39,2.77-0.41,4.12-3.24,3.81c-2.35-0.26-4.76-0.27-7.11-0.03
			C66.73,170.41,65.66,169.29,65.95,166.44z"/>
		<path class="st6" d="M156.69,35.85c-0.01-4.78-0.01-9.56-0.02-14.35c2.58,0.73,3.66,2.48,3.35,5.42c-0.18,1.7-0.18,3.46,0,5.17
			C160.33,34.97,159.38,36.27,156.69,35.85z"/>
		<path class="st6" d="M156.67,56.85c0.01-4.78,0.01-9.56,0.02-14.35c2.69-0.43,3.65,0.88,3.34,3.76c-0.18,1.7-0.18,3.46,0,5.17
			C160.33,54.37,159.25,56.12,156.67,56.85z"/>
		<path class="st7" d="M153.17,75.61c-0.01-2.5,0.15-5.02-0.06-7.5c-0.25-2.9,0.64-4.26,3.38-3.84c-0.01,3.73-0.01,7.46-0.02,11.18
			C155.41,76.6,154.3,76.54,153.17,75.61z"/>
		<path class="st8" d="M216.29,57.63c-0.03-3.77-0.05-7.53-0.08-11.3c2.83-0.53,3.72,0.89,3.48,3.84c-0.2,2.42-0.08,4.88-0.1,7.32
			C218.53,58.54,217.42,58.58,216.29,57.63z"/>
		<path class="st9" d="M136.58,93.56c0.06,3.74,0.13,7.48,0.19,11.23c-2.87,0.61-3.89-0.78-3.55-3.81c0.14-1.21,0.15-2.48,0-3.68
			C132.86,94.38,133.92,93.14,136.58,93.56z"/>
		<path class="st7" d="M13.16,122.77c0.03,3.77,0.05,7.55,0.08,11.32c-2.61,0.4-3.73-0.68-3.46-3.69c0.22-2.48,0.07-4.99,0.08-7.49
			C10.92,121.89,12.02,121.81,13.16,122.77z"/>
		<path class="st10" d="M153.09,6.59c-3.43-0.05-6.85-0.1-10.28-0.15c-0.38-2.91,0.72-4.1,3.4-3.69c1.11,0.17,2.26,0.13,3.38,0.02
			C152.21,2.51,153.48,3.62,153.09,6.59z"/>
		<path class="st11" d="M216.22,46.31c-3.2-0.01-6.4-0.01-9.61-0.02c-0.71-4.58,2.27-3.85,4.64-3.74
			C213.55,42.65,216.91,41.36,216.22,46.31z"/>
		<path class="st12" d="M22.86,119.02c-2.32-0.03-4.64-0.06-6.97-0.09c-0.29-2.62,0.46-3.78,3.17-3.7
			C21.63,115.32,23.33,115.66,22.86,119.02z"/>
		<path class="st13" d="M76.29,61.37c-2.29-0.06-4.58-0.13-6.86-0.19c-0.48-3.3,1.14-3.65,3.69-3.72
			C76,57.38,76.63,58.71,76.29,61.37z"/>
		<path class="st14" d="M79.82,166.43c-0.03-2.26-0.06-4.52-0.09-6.79c2.49-0.39,3.53,0.45,3.56,3.53
			C83.33,166.33,81.99,166.65,79.82,166.43z"/>
		<path class="st15" d="M149.74,89.88c-0.01-1.08,0.09-2.19-0.05-3.25c-0.41-2.98,0.91-3.9,3.37-3.58
			c-0.01,2.22-0.01,4.45-0.02,6.67C151.98,90.85,150.88,90.8,149.74,89.88z"/>
		<path class="st16" d="M139.4,10.26c0,1.37-0.12,2.76,0.01,4.12c0.23,2.32-0.96,2.78-2.67,2.71c-0.01-1.33,0.07-2.67-0.07-3.98
			C136.44,10.77,137.53,10.11,139.4,10.26z"/>
		<path class="st4" d="M156.47,10.43c-2.69,0.37-3.79-0.95-3.4-3.84C155.97,6,157.07,7.31,156.47,10.43z"/>
		<path class="st17" d="M206.62,46.3c0.47,2.99-0.67,4.24-3.4,3.78C202.68,47.02,203.86,45.81,206.62,46.3z"/>
		<path class="st18" d="M203.16,50.03c0.55,3.02-0.61,4.26-3.35,3.84C199.25,50.84,200.41,49.6,203.16,50.03z"/>
		<path class="st19" d="M216.29,57.63c1.1-0.05,2.2-0.09,3.31-0.14c0.57,3-0.54,4.27-3.3,3.86
			C216.29,60.11,216.29,58.87,216.29,57.63z"/>
		<path class="st20" d="M83.08,71.93c-2.74,0.34-3.89-0.9-3.26-3.92C82.59,67.64,83.75,68.88,83.08,71.93z"/>
		<path class="st21" d="M192.82,67.98c0.64,3.02-0.49,4.27-3.24,3.92C188.9,68.85,190.07,67.64,192.82,67.98z"/>
		<path class="st22" d="M66.14,71.78c2.76-0.4,3.82,0.91,3.27,3.87c-1.14,0.95-2.24,0.9-3.31-0.14
			C66.11,74.26,66.12,73.02,66.14,71.78z"/>
		<path class="st19" d="M66.09,75.5c1.1,0.05,2.21,0.1,3.31,0.14c-0.01,1.24-0.02,2.48-0.03,3.72
			C66.62,79.77,65.53,78.48,66.09,75.5z"/>
		<path class="st20" d="M86.48,79.47c-2.8,0.37-3.83-0.99-3.23-3.95C86.05,75.15,87.2,76.39,86.48,79.47z"/>
		<path class="st4" d="M153.17,75.61c1.1-0.05,2.2-0.1,3.3-0.15c0.62,2.97-0.4,4.32-3.21,3.92
			C153.22,78.12,153.2,76.87,153.17,75.61z"/>
		<path class="st23" d="M206.66,79.35c-0.58-3.03,0.61-4.23,3.33-3.87C210.58,78.52,209.44,79.78,206.66,79.35z"/>
		<path class="st17" d="M203.25,83.15c-0.56-3.02,0.57-4.29,3.34-3.86C207.16,82.33,205.99,83.55,203.25,83.15z"/>
		<path class="st24" d="M69.57,82.97c2.77-0.35,3.88,0.92,3.23,3.94C70.03,87.26,68.89,86.01,69.57,82.97z"/>
		<path class="st25" d="M72.99,89.78c2.84-0.4,3.87,0.96,3.22,3.96C73.43,94.07,72.31,92.8,72.99,89.78z"/>
		<path class="st4" d="M149.74,89.88c1.1-0.05,2.2-0.11,3.3-0.16c0.63,3-0.45,4.31-3.24,3.91
			C149.78,92.37,149.76,91.12,149.74,89.88z"/>
		<path class="st24" d="M92.66,101.2c-2.83,0.38-3.85-0.98-3.19-3.97C92.31,96.85,93.32,98.22,92.66,101.2z"/>
		<path class="st26" d="M146.33,101.16c-0.57-2.97,0.5-4.28,3.26-3.9C150.3,100.36,149.08,101.53,146.33,101.16z"/>
		<path class="st27" d="M76.44,100.93c2.78-0.35,3.87,0.96,3.23,3.95C76.85,105.27,75.76,103.97,76.44,100.93z"/>
		<path class="st4" d="M139.37,104.96c1.17-0.01,2.34-0.03,3.5-0.04c-0.32,1.36,0.79,3.6-1.73,3.63
			C138.62,108.57,139.67,106.34,139.37,104.96z"/>
		<path class="st20" d="M79.85,108.48c2.74-0.35,3.87,0.91,3.28,3.91C80.35,112.78,79.18,111.54,79.85,108.48z"/>
		<path class="st24" d="M96.1,112.45c-2.79,0.35-3.9-0.92-3.2-3.96C95.73,108.1,96.74,109.48,96.1,112.45z"/>
		<path class="st19" d="M96.27,119.02c0.01-1.24,0.02-2.48,0.03-3.72c2.76-0.41,3.85,0.89,3.29,3.86
			C98.44,120.12,97.33,120.07,96.27,119.02z"/>
		<path class="st19" d="M13.16,122.77c-1.1,0.05-2.21,0.09-3.31,0.14c-0.55-3.1,0.63-4.33,3.44-3.77
			C13.24,120.35,13.2,121.56,13.16,122.77z"/>
		<path class="st28" d="M29.72,122.79c-2.74,0.65-3.89-0.58-3.57-3.58C28.95,118.48,30.08,119.74,29.72,122.79z"/>
		<path class="st22" d="M96.27,119.02c1.1,0.05,2.21,0.1,3.31,0.14c0,1.21,0,2.41-0.01,3.61c-1.07,1.04-2.17,1.08-3.3,0.13
			C96.27,121.62,96.27,120.32,96.27,119.02z"/>
		<path class="st19" d="M36.58,126.54c-2.73,0.65-3.94-0.54-3.61-3.58C35.75,122.25,36.95,123.44,36.58,126.54z"/>
		<path class="st24" d="M89.38,122.82c2.68-0.49,3.81,0.78,3.48,3.69C90,127.19,88.9,125.9,89.38,122.82z"/>
		<path class="st29" d="M40.09,130.26c-2.77,0.67-3.96-0.53-3.58-3.6C39.28,125.98,40.4,127.27,40.09,130.26z"/>
		<path class="st21" d="M46.23,134.01c-2.8,0.72-3.89-0.59-3.56-3.59C45.42,129.76,46.55,131.01,46.23,134.01z"/>
		<path class="st28" d="M53.04,137.8c-2.77,0.67-3.87-0.64-3.55-3.61C52.27,133.51,53.41,134.77,53.04,137.8z"/>
		<path class="st21" d="M22.77,140.93c2.75-0.65,3.9,0.59,3.55,3.6C23.51,145.24,22.45,143.9,22.77,140.93z"/>
		<path class="st21" d="M63.33,144.56c-2.75,0.62-3.87-0.66-3.52-3.63C62.61,140.25,63.69,141.58,63.33,144.56z"/>
		<path class="st29" d="M29.58,144.69c2.76-0.66,3.95,0.55,3.57,3.61C30.38,148.98,29.25,147.7,29.58,144.69z"/>
		<path class="st27" d="M96.27,122.91c1.1-0.04,2.2-0.09,3.3-0.13c0.58,3.14-0.61,4.35-3.44,3.75
			C96.18,125.33,96.22,124.12,96.27,122.91z"/>
		<path class="st19" d="M72.89,152.12c-2.73,0.54-3.84-0.76-3.51-3.69C72.17,147.81,73.34,149.05,72.89,152.12z"/>
		<path class="st28" d="M76.31,155.88c-2.73,0.51-3.87-0.76-3.45-3.73C75.64,151.58,76.78,152.85,76.31,155.88z"/>
		<path class="st26" d="M46.06,155.95c2.77-0.69,3.91,0.57,3.56,3.59C46.84,160.24,45.75,158.93,46.06,155.95z"/>
		<path class="st28" d="M79.73,159.64c-2.73,0.48-3.88-0.77-3.42-3.76C79.08,155.36,80.22,156.61,79.73,159.64z"/>
		<path class="st30" d="M52.89,159.72c2.79-0.7,3.95,0.54,3.58,3.6C53.72,163.97,52.57,162.72,52.89,159.72z"/>
		<path class="st19" d="M33.08,148.42c2.78-0.68,3.89,0.62,3.58,3.61C33.9,152.69,32.7,151.49,33.08,148.42z"/>
		<path class="st17" d="M210.12,71.92c-0.18-2.14-0.39-4.3,2.61-3.89C212.95,70.2,213.06,72.28,210.12,71.92z"/>
		<path class="st27" d="M86.66,119.02c2.92-0.42,2.81,1.7,2.69,3.83C86.35,123.34,86.49,121.2,86.66,119.02z"/>
		<path class="st31" d="M186.61,86.69c0.74,3.23-1.18,3.28-3.2,3.21C182.69,86.7,184.59,86.62,186.61,86.69z"/>
		<path class="st32" d="M39.92,152.19c2.97-0.73,2.9,1.45,2.87,3.59C39.8,156.53,39.88,154.34,39.92,152.19z"/>
		<path class="st30" d="M13.23,134.1c2.87-0.51,2.86,1.56,2.77,3.7C12.94,138.49,13.15,136.24,13.23,134.1z"/>
		<path class="st18" d="M189.4,75.51c0.21,2.13,0.46,4.3-2.55,3.94C186.6,77.28,186.37,75.14,189.4,75.51z"/>
		<path class="st19" d="M15.94,137.91c1.96-0.19,3.9-0.36,3.57,2.87C17.54,140.98,15.55,141.22,15.94,137.91z"/>
		<path class="st18" d="M196.27,61.27c0.67,3.27-1.35,3.16-3.29,3.14C192.32,61.15,194.29,61.2,196.27,61.27z"/>
		<path class="st19" d="M56.4,163.42c1.93-0.15,3.94-0.44,3.61,2.84C58.03,166.5,56.01,166.79,56.4,163.42z"/>
		<path class="st17" d="M186.67,100.94c-0.12-2.23,0.04-4.2,2.89-3.54C189.56,99.52,189.74,101.82,186.67,100.94z"/>
		<path class="st24" d="M89.23,89.94c-2.21,0.21-3.01-0.89-2.5-3.22C88.95,86.51,89.74,87.62,89.23,89.94z"/>
	</g>
</g>
<text transform="matrix(1 0 0 1 111.0703 219.0691)" class="st33 st34 st35">SALLES SUPPORT</text>
</svg>
